<?xml version="1.0" encoding="utf-8"?>
<!-- Generator: Adobe Illustrator 19.1.0, SVG Export Plug-In . SVG Version: 6.00 Build 0)  -->
<svg version="1.1" id="Capa_1" xmlns="http://www.w3.org/2000/svg" xmlns:xlink="http://www.w3.org/1999/xlink" x="0px" y="0px"
	 viewBox="0 0 100 100" style="enable-background:new 0 0 100 100;" xml:space="preserve">
<style type="text/css">
	.st0{fill:#484848;}
	.st1{fill:none;stroke:#484848;stroke-width:10;stroke-miterlimit:10;}
</style>
<g>
	<g>
		<path class="st0" d="M54.3,44.5c5-2.3,9.7-4.4,14.4-6.4c3.3-1.4,6.3-0.2,7.4,2.8c1,2.5,0.2,5.1-2.3,6.4
			c-7.5,3.7-14.9,7.4-22.6,10.8c-4,1.8-7.4-0.8-7.5-5.6c-0.1-2.7-0.1-5.4-0.1-8.1c0-5.6-0.1-11.3,0-16.9c0.1-4.3,3.6-6.8,7.4-5.3
			c2.5,1,3.3,3.1,3.3,5.5C54.3,33.1,54.3,38.6,54.3,44.5z"/>
	</g>
	<circle class="st1" cx="50" cy="50" r="41"/>
</g>
</svg>
