<?xml version="1.0" encoding="utf-8"?>
<!-- Generator: Adobe Illustrator 19.1.0, SVG Export Plug-In . SVG Version: 6.00 Build 0)  -->
<svg version="1.1" id="Capa_1" xmlns="http://www.w3.org/2000/svg" xmlns:xlink="http://www.w3.org/1999/xlink" x="0px" y="0px"
	 viewBox="0 0 100 100" style="enable-background:new 0 0 100 100;" xml:space="preserve">
<style type="text/css">
	.st0{fill:#FCFCFC;}
</style>
<g>
	<path class="st0" d="M6.9,76.9c0.1-1.2,0.2-2.4,0.3-3.6c1.1-11.3,10.6-18.1,18.6-19c3.5-0.4,7-0.1,10.6-0.1c2.2,0,4.4,0,6.6,0
		c3.3,0,6.6,0.4,9.5,2C60.1,60,64.6,66.1,65,74.7c0.3,5.9,0.1,11.9,0.2,17.8c0,0.9-0.4,1.3-1.2,1.7c-4.7,2.1-9.6,3.3-14.7,4.1
		c-7.4,1.1-14.8,1.1-22.2,0.2c-6.6-0.8-13-2.4-19.3-4.3c-0.3-0.1-0.6-0.5-0.9-0.7C6.9,87.9,6.9,82.4,6.9,76.9z"/>
	<path class="st0" d="M64.8,1.2C65.9,1.4,67,1.5,68,1.7c8.1,1.7,13.7,9.1,13.4,17.6c-0.3,7.9-6.7,14.8-14.7,15.9
		c-2.8,0.4-5.6,0.1-8.3-0.9c-0.9-0.3-1.4-0.9-1.6-1.8c-0.9-5.5-3.7-10-8.2-13.3c-1-0.7-1.4-1.5-1.3-2.8c0.8-8.1,7.6-14.6,15.7-15
		c0.3,0,0.5-0.1,0.8-0.2C64.2,1.2,64.5,1.2,64.8,1.2z"/>
	<path class="st0" d="M69.2,81.5c0-1.8,0-3.3,0-4.9c0-2.9-0.3-5.8-1.3-8.6c-2.7-7.9-8-13.3-15.8-16.3c-0.4-0.2-0.8-0.3-1.3-0.5
		c0.4-0.4,0.7-0.8,1-1.2c3.1-3.5,4.9-7.6,5.3-12.3c0.1-0.8,0.4-1.2,1.3-1.2c4.8,0.1,9.7,0,14.5,0.1c9.2,0.2,17.6,7.1,19.8,16.3
		c0.5,2,0.8,4,0.8,6c-0.1,5.4,0,10.8,0,16.1c0,0.6-0.2,1-0.8,1.3c-5.1,2.4-10.6,3.7-16.2,4.4C74.1,81.1,71.8,81.2,69.2,81.5z"/>
	<path class="st0" d="M36.1,18.9c9.6,0,17,7.6,17,17.3c0,9.3-7.7,16.8-17.2,16.8c-9.2,0-16.9-7.8-16.9-17
		C19.1,26.5,26.7,18.9,36.1,18.9z"/>
</g>
</svg>
