<?xml version="1.0" encoding="utf-8"?>
<!-- Generator: Adobe Illustrator 19.1.0, SVG Export Plug-In . SVG Version: 6.00 Build 0)  -->
<svg version="1.1" id="Capa_1" xmlns="http://www.w3.org/2000/svg" xmlns:xlink="http://www.w3.org/1999/xlink" x="0px" y="0px"
	 viewBox="0 0 100 100" style="enable-background:new 0 0 100 100;" xml:space="preserve">
<style type="text/css">
	.st0{fill:#484848;}
</style>
<g>
	<path class="st0" d="M22.5,2.4c1.9,0.6,3,2,3.9,3.7c3.3,6.4,6.7,12.7,10,19.1c1.4,2.7,1.1,5.1-1,7.3c-1.4,1.5-2.9,2.9-4.4,4.4
		c-0.9,0.9-1.3,1.9-0.8,3c1,2.2,1.8,4.5,3.2,6.5c6,8.9,13.5,16.5,22.8,21.9c1.4,0.9,3.1,1.3,4.7,1.9c1,0.4,1.7-0.1,2.4-0.8
		c1.6-1.7,3.3-3.3,4.9-5c2.3-2.3,5.4-2.7,8.3-1.1c6.1,3.6,12.2,7.2,18.2,10.8c0.7,0.4,1.4,0.9,2,1.5c1.5,1.6,1.6,3.8,0.3,5.5
		c-0.3,0.4-0.6,0.8-1,1.1c-4.2,4.2-8.4,8.3-12.6,12.5c-2.4,2.4-5.3,3.3-8.6,3.1c-8.2-0.5-15.7-3.4-22.8-7.3
		c-9.1-5-17-11.5-24.3-18.8c-6.5-6.5-12.3-13.5-16.9-21.4C7,44,4.2,37.2,2.8,29.7c-0.2-0.9-0.3-1.8-0.5-2.7c0-1.3,0-2.6,0-3.9
		c0.4-3,2.1-5.3,4.2-7.3c3.8-3.7,7.5-7.4,11.2-11.2c1-1,2-1.9,3.5-2.2C21.7,2.4,22.1,2.4,22.5,2.4z"/>
</g>
</svg>
