<?xml version="1.0" encoding="utf-8"?>
<!-- Generator: Adobe Illustrator 19.1.0, SVG Export Plug-In . SVG Version: 6.00 Build 0)  -->
<svg version="1.1" id="Capa_1" xmlns="http://www.w3.org/2000/svg" xmlns:xlink="http://www.w3.org/1999/xlink" x="0px" y="0px"
	 viewBox="0 0 100 100" style="enable-background:new 0 0 100 100;" xml:space="preserve">
<style type="text/css">
	.st0{fill:#484848;}
</style>
<g>
	<path class="st0" d="M51.2,5.9c0.5,0.1,1.1,0.2,1.6,0.3c4.1,1,6.3,3.8,7.2,7.8c0.2,1,0.3,2.1,0.3,3.2c0,7.3,0,14.7,0,22
		c0,0.6,0.2,0.7,0.8,0.7c7.2,0,14.5,0,21.7,0c1.6,0,3.2,0.1,4.7,0.7c3.8,1.3,6.2,4.5,6.3,8.8c0,1.3-0.1,2.7-0.4,4
		c-1,3.9-3.8,6.1-7.7,6.8c-1,0.2-2.1,0.2-3.1,0.2c-7.1,0-14.2,0-21.4,0c-0.3,0-0.5,0-0.9,0c0,0.3,0,0.6,0,0.8c0,7.3,0,14.6,0,21.9
		c0,1.6-0.2,3.1-0.7,4.7c-1.4,4-4.6,6.3-8.9,6.5c-1.9,0.1-3.8-0.2-5.5-1c-3.2-1.6-4.7-4.4-5.1-7.8c-0.1-1-0.1-2-0.1-3.1
		c0-7,0-14.1,0-21.1c0-0.3,0-0.5,0-0.9c-0.3,0-0.6,0-0.9,0c-7.2,0-14.4,0-21.6,0c-1.7,0-3.3-0.2-4.9-0.8c-3.5-1.5-5.4-4.1-6.1-7.8
		c0-0.2-0.1-0.4-0.1-0.7c0-0.7,0-1.5,0-2.2c0-0.2,0.1-0.4,0.1-0.6c0.5-3.9,2.7-6.5,6.4-7.8c1.5-0.5,3-0.6,4.6-0.6
		c7.2,0,14.4,0,21.6,0c0.8,0,0.8,0,0.8-0.8c0-7.3,0-14.6,0-22c0-1.1,0.1-2.1,0.3-3.2c0.8-4,3-6.8,7.1-7.8c0.5-0.1,1-0.2,1.5-0.3
		C49.7,5.9,50.5,5.9,51.2,5.9z"/>
</g>
</svg>
